<?xml version="1.0" standalone="no"?>
<!DOCTYPE svg PUBLIC "-//W3C//DTD SVG 20010904//EN"
 "http://www.w3.org/TR/2001/REC-SVG-20010904/DTD/svg10.dtd">
<svg version="1.0" xmlns="http://www.w3.org/2000/svg"
 width="50.000000pt" height="50.000000pt" viewBox="0 0 50.000000 50.000000"
 preserveAspectRatio="xMidYMid meet">

<g transform="translate(0.000000,50.000000) scale(0.100000,-0.100000)"
fill="#000000" stroke="none">
<path d="M24 419 c-22 -24 -24 -29 -8 -21 11 6 26 18 34 26 10 13 42 16 197
16 183 0 185 0 221 -26 l37 -27 -33 32 -32 31 -193 0 -193 0 -30 -31z"/>
<path d="M41 386 c-29 -30 -31 -36 -21 -57 l12 -22 13 30 c7 17 26 42 41 57
26 24 27 26 8 26 -11 0 -35 -15 -53 -34z"/>
<path d="M170 402 c-79 -39 -38 -69 106 -74 81 -4 96 -7 127 -31 l35 -27 33
41 33 42 -24 19 -25 20 -5 -23 c-5 -19 -13 -25 -45 -27 -33 -3 -42 1 -62 27
-38 49 -113 63 -173 33z"/>
<path d="M355 410 c4 -6 11 -8 16 -5 14 9 11 15 -7 15 -8 0 -12 -5 -9 -10z"/>
<path d="M17 277 c63 -80 228 -267 233 -265 4 2 55 59 115 128 138 159 139
160 133 160 -3 0 -61 -63 -128 -141 -67 -77 -126 -137 -130 -132 -4 4 -57 68
-119 141 -62 72 -115 132 -117 132 -3 0 3 -10 13 -23z"/>
<path d="M102 234 c23 -23 35 -28 69 -25 28 2 47 -3 60 -15 22 -20 102 -15
126 9 14 13 13 16 -3 25 -11 5 -66 12 -124 15 -58 4 -116 9 -130 13 l-25 7 27
-29z"/>
<path d="M213 108 c17 -21 33 -38 37 -38 4 0 20 17 37 38 l30 37 -67 0 -67 0
30 -37z"/>
</g>
</svg>
